<?xml version="1.0" encoding="utf-8"?>
<!-- Generator: Adobe Illustrator 21.1.0, SVG Export Plug-In . SVG Version: 6.00 Build 0)  -->
<svg version="1.1" xmlns="http://www.w3.org/2000/svg" xmlns:xlink="http://www.w3.org/1999/xlink" x="0px" y="0px"
	 viewBox="0 0 750 112.5" style="enable-background:new 0 0 750 112.5;" xml:space="preserve">
<style type="text/css">
	.st0{fill:url(#SVGID_1_);}
	.st1{fill:url(#SVGID_2_);}
	.st2{fill:#F5A100;}
	.st3{fill:#FABE4E;}
	.st4{fill:#1D0A1E;}
	.st5{fill:url(#SVGID_3_);}
	.st6{fill:#CE1E1E;}
	.st7{fill:#431C31;}
	.st8{fill:url(#SVGID_4_);}
	.st9{fill:url(#SVGID_5_);}
</style>
<g id="BACKGROUND_1">
</g>
<g id="BACKGROUND_2">
	<g>
		<linearGradient id="SVGID_1_" gradientUnits="userSpaceOnUse" x1="178.5022" y1="-195.8064" x2="164.9173" y2="137.0242">
			<stop  offset="5.586590e-03" style="stop-color:#F7A100"/>
			<stop  offset="1" style="stop-color:#E54717"/>
		</linearGradient>
		<path class="st0" d="M0,15.2l6.6-6.1c14-13,36-11.9,48.7,2.4l43.3,48.9c11.9,13.5,32.2,15.3,46.4,4.3l1.2-0.9
			c12.3-9.6,29.5-9.6,41.8,0l20.6,15.9c12.2,9.5,29.3,9.5,41.6,0.1v0c12-9.2,28.7-9.4,41-0.4l44.8,33.1H0V15.2z"/>
		
			<linearGradient id="SVGID_2_" gradientUnits="userSpaceOnUse" x1="605.2054" y1="-195.8064" x2="591.6205" y2="137.0242" gradientTransform="matrix(-1 0 0 1 1176.7032 0)">
			<stop  offset="5.586590e-03" style="stop-color:#F7A100"/>
			<stop  offset="1" style="stop-color:#E54717"/>
		</linearGradient>
		<path class="st1" d="M750,15.2l-6.6-6.1c-14-13-36-11.9-48.7,2.4l-43.3,48.9c-11.9,13.5-32.2,15.3-46.4,4.3l-1.2-0.9
			c-12.3-9.6-29.5-9.6-41.8,0l-20.6,15.9c-12.2,9.5-29.3,9.5-41.6,0.1v0c-12-9.2-28.7-9.4-41-0.4l-44.8,33.1H750V15.2z"/>
	</g>
</g>
<g id="DESIGNED_BY_FREEPIK">
</g>
</svg>
