<?xml version="1.0" encoding="utf-8"?>
<!-- Generator: Adobe Illustrator 21.1.0, SVG Export Plug-In . SVG Version: 6.00 Build 0)  -->
<svg version="1.1" xmlns="http://www.w3.org/2000/svg" xmlns:xlink="http://www.w3.org/1999/xlink" x="0px" y="0px"
	 viewBox="0 0 750 112.5" style="enable-background:new 0 0 750 112.5;" xml:space="preserve">
<style type="text/css">
	.st0{fill:#F5A100;}
	.st1{fill:#FABE4E;}
	.st2{fill:url(#SVGID_1_);}
	.st3{fill:#CE1E1E;}
	.st4{fill:#431C31;}
	.st5{fill:url(#SVGID_2_);}
	.st6{fill:url(#SVGID_3_);}
	.st7{fill:#1D0A1E;}
</style>
<g id="BACKGROUND_1">
</g>
<g id="BACKGROUND_2">
	<g>
		<path class="st0" d="M269.9,72.8c0,0,29,24.9,32.3,25.5c3.4,0.7,17.7,2.5,17.7,2.5l-27.3-20.2C292.6,80.6,281.8,72.2,269.9,72.8z"
			/>
		<path class="st0" d="M319.9,100.8c0,0-5.1,4.2-1.3,5.8c3.9,1.7,13.9,3.5,13.9,3.5L319.9,100.8z"/>
		<path class="st0" d="M174.9,56.3c0,0,10.6,4.3,15.4,9.3c6.7,7,14.1,10.9,14.1,10.9s-26.7-3.3-36.4-8.5c-9.8-5.2-8.4-10.5-8.4-10.5
			S162.5,55.4,174.9,56.3z"/>
		<path class="st0" d="M208.5,79.7l-26.8-2.1c0,0,12.1,6.3,19.2,6.6C208.1,84.5,208.5,79.7,208.5,79.7z"/>
		<path class="st0" d="M35.1,0c0,0,11.2,1.4,20.1,11.5s39.6,44.8,39.6,44.8s-31-9.8-36.3-16.2C53.3,33.6,29.8,5.1,29.8,5.1
			s5.6,0.6,10.3,5.9c4.7,5.3,9.2,8.2,7.8,4.3C46.6,11.2,31.2,1.6,29.8,0L35.1,0z"/>
		<path class="st0" d="M575.1,56.3c0,0-10.6,4.3-15.4,9.3c-6.7,7-14.1,10.9-14.1,10.9s26.7-3.3,36.4-8.5c9.8-5.2,8.4-10.5,8.4-10.5
			S587.5,55.4,575.1,56.3z"/>
		<path class="st0" d="M541.5,79.7l26.8-2.1c0,0-12.1,6.3-19.2,6.6C541.9,84.5,541.5,79.7,541.5,79.7z"/>
		<path class="st0" d="M714.9,0c0,0-11.2,1.4-20.1,11.5c-8.9,10-39.6,44.8-39.6,44.8s31-9.8,36.3-16.2c5.3-6.4,28.8-34.9,28.8-34.9
			s-5.6,0.6-10.3,5.9c-4.7,5.3-9.2,8.2-7.8,4.3S718.8,1.6,720.2,0L714.9,0z"/>
	</g>
</g>
<g id="DESIGNED_BY_FREEPIK">
</g>
</svg>
