<?xml version="1.0" encoding="utf-8"?>
<!-- Generator: Adobe Illustrator 21.1.0, SVG Export Plug-In . SVG Version: 6.00 Build 0)  -->
<svg version="1.1" xmlns="http://www.w3.org/2000/svg" xmlns:xlink="http://www.w3.org/1999/xlink" x="0px" y="0px"
	 viewBox="0 0 198.7 80.1" style="enable-background:new 0 0 198.7 80.1;" xml:space="preserve">
<style type="text/css">
	.st0{fill:url(#SVGID_1_);}
	.st1{fill:#CE1E1E;}
	.st2{fill:#FABE4E;}
	.st3{fill:#431C31;}
	.st4{fill:url(#SVGID_2_);}
	.st5{fill:#F5A100;}
	.st6{fill:url(#SVGID_3_);}
	.st7{fill:#1D0A1E;}
</style>
<g id="BACKGROUND_1">
</g>
<g id="BACKGROUND_2">
	<g>
		<path class="st2" d="M173.6,56.9H16.8C7.6,56.9,0,49.3,0,40l0,0c0-9.3,7.6-16.8,16.8-16.8h156.8c9.3,0,16.8,7.6,16.8,16.8l0,0
			C190.5,49.3,182.9,56.9,173.6,56.9z"/>
		<path class="st2" d="M185.2,80.1h-123c-7.4,0-13.5-6.1-13.5-13.5v0c0-7.4,6.1-13.5,13.5-13.5h123c7.4,0,13.5,6.1,13.5,13.5v0
			C198.7,74,192.6,80.1,185.2,80.1z"/>
		<path class="st2" d="M171.4,12.7H75.6c-3.5,0-6.4-2.9-6.4-6.4l0,0c0-3.5,2.9-6.4,6.4-6.4h95.8c3.5,0,6.4,2.9,6.4,6.4l0,0
			C177.7,9.9,174.9,12.7,171.4,12.7z"/>
	</g>
</g>
<g id="DESIGNED_BY_FREEPIK">
</g>
</svg>
