<?xml version="1.0" encoding="utf-8"?>
<!-- Generator: Adobe Illustrator 21.1.0, SVG Export Plug-In . SVG Version: 6.00 Build 0)  -->
<svg version="1.1" xmlns="http://www.w3.org/2000/svg" xmlns:xlink="http://www.w3.org/1999/xlink" x="0px" y="0px"
	 viewBox="0 0 154.8 37" style="enable-background:new 0 0 154.8 37;" xml:space="preserve">
<style type="text/css">
	.st0{fill:url(#SVGID_1_);}
	.st1{fill:#CE1E1E;}
	.st2{fill:#FABE4E;}
	.st3{fill:#431C31;}
	.st4{fill:url(#SVGID_2_);}
	.st5{fill:#F5A100;}
	.st6{fill:url(#SVGID_3_);}
	.st7{fill:#1D0A1E;}
</style>
<g id="BACKGROUND_1">
</g>
<g id="BACKGROUND_2">
	<g>
		<path class="st2" d="M120.5,37H8.7C3.9,37,0,33,0,28.2v0c0-4.8,3.9-8.7,8.7-8.7h111.7c4.8,0,8.7,3.9,8.7,8.7v0
			C129.2,33,125.3,37,120.5,37z"/>
		<path class="st2" d="M142.5,24.5H76.9c-6.7,0-12.3-5.5-12.3-12.3l0,0C64.6,5.5,70.1,0,76.9,0h65.7c6.7,0,12.3,5.5,12.3,12.3l0,0
			C154.8,19,149.3,24.5,142.5,24.5z"/>
	</g>
</g>
<g id="DESIGNED_BY_FREEPIK">
</g>
</svg>
