<?xml version="1.0" encoding="utf-8"?>
<!-- Generator: Adobe Illustrator 21.1.0, SVG Export Plug-In . SVG Version: 6.00 Build 0)  -->
<svg version="1.1" xmlns="http://www.w3.org/2000/svg" xmlns:xlink="http://www.w3.org/1999/xlink" x="0px" y="0px"
	 viewBox="0 0 750 152.7" style="enable-background:new 0 0 750 152.7;" xml:space="preserve">
<style type="text/css">
	.st0{fill:url(#SVGID_1_);}
	.st1{fill:#CE1E1E;}
	.st2{fill:#FABE4E;}
	.st3{fill:#431C31;}
	.st4{fill:url(#SVGID_2_);}
	.st5{fill:#F5A100;}
	.st6{fill:url(#SVGID_3_);}
	.st7{fill:#1D0A1E;}
</style>
<g id="BACKGROUND_1">
</g>
<g id="BACKGROUND_2">
	<g>
		<path class="st2" d="M471.6,14.5H278.4c-1.1,0-1.9,0.9-1.9,1.9l0,0c0,1.1,0.9,1.9,1.9,1.9h193.2c1.1,0,1.9-0.9,1.9-1.9l0,0
			C473.5,15.4,472.6,14.5,471.6,14.5z"/>
		<path class="st2" d="M437.2,21.8H312.8c-1.1,0-1.9,0.9-1.9,1.9l0,0c0,1.1,0.9,1.9,1.9,1.9h124.3c1.1,0,1.9-0.9,1.9-1.9l0,0
			C439.1,22.7,438.2,21.8,437.2,21.8z"/>
		<rect x="349.7" y="18.4" class="st2" width="50.6" height="3.8"/>
	</g>
</g>
<g id="DESIGNED_BY_FREEPIK">
</g>
</svg>
