<?xml version="1.0" encoding="utf-8"?>
<!-- Generator: Adobe Illustrator 21.1.0, SVG Export Plug-In . SVG Version: 6.00 Build 0)  -->
<svg version="1.1" id="Layer_1" xmlns="http://www.w3.org/2000/svg" xmlns:xlink="http://www.w3.org/1999/xlink" x="0px" y="0px"
	 viewBox="0 0 750 500" style="enable-background:new 0 0 750 500;" xml:space="preserve">
<style type="text/css">
	.st0{fill:url(#SVGID_1_);}
	.st1{fill:#FABE4E;}
	.st2{fill:#431C31;}
	.st3{fill:#CE1E1E;}
	.st4{fill:#1D0A1E;}
	.st5{fill:#F5A100;}
</style>
<linearGradient id="SVGID_1_" gradientUnits="userSpaceOnUse" x1="375" y1="500" x2="375" y2="-9.094947e-13">
	<stop  offset="0" style="stop-color:#F1AB3C"/>
	<stop  offset="1" style="stop-color:#E54717"/>
</linearGradient>
<rect class="st0" width="750" height="500"/>
<circle class="st1" cx="375.5" cy="350.5" r="87.5"/>
<rect y="351" class="st2" width="750" height="150"/>
<polygon class="st3" points="0,351 0,226 45,181 143,279 179.5,242.5 326,351 "/>
<polygon class="st3" points="750,351 750,226 705,181 607,279 570.5,242.5 424,351 "/>
<polygon class="st4" points="79.9,351 109.9,245.9 139.1,351 161,306 182.3,351 207,220 239.8,351 "/>
<polygon class="st4" points="509.9,351 539.9,245.9 569.1,351 591,306 612.3,351 637,220 669.8,351 "/>
<path class="st1" d="M212.5,117H75.3c-6.6,0-12,5.4-12,12v0c0,2.3,0.6,4.4,1.8,6.2h-9.2c-5.5,0-9.9,4.5-9.9,9.9v0
	c0,5.5,4.5,9.9,9.9,9.9h141.3c5.5,0,9.9-4.5,9.9-9.9v0c0-1.5-0.3-2.9-0.9-4.1h6.3c6.6,0,12-5.4,12-12v0
	C224.4,122.4,219,117,212.5,117z"/>
<path class="st1" d="M689,108h-33v-7c0-6.6-5.4-12-12-12h-9c0-6.6-5.4-12-12-12H436c-6.6,0-12,5.4-12,12c0,6.6,5.4,12,12,12h19v7
	c0,6.6,5.4,12,12,12h23c0,6.6,5.4,12,12,12h187c6.6,0,12-5.4,12-12C701,113.4,695.6,108,689,108z"/>
<path class="st5" d="M521.5,370h-292c-1.9,0-3.5-1.6-3.5-3.5l0,0c0-1.9,1.6-3.5,3.5-3.5h292c1.9,0,3.5,1.6,3.5,3.5l0,0
	C525,368.4,523.4,370,521.5,370z"/>
<path class="st1" d="M480.5,383h-210c-1.9,0-3.5-1.6-3.5-3.5l0,0c0-1.9,1.6-3.5,3.5-3.5h210c1.9,0,3.5,1.6,3.5,3.5l0,0
	C484,381.4,482.4,383,480.5,383z"/>
</svg>
